<mxfile host="app.diagrams.net" modified="2024-04-27T16:43:03.955Z" agent="Mozilla/5.0 (Windows NT 10.0; Win64; x64) AppleWebKit/537.36 (KHTML, like Gecko) Chrome/124.0.0.0 Safari/537.36 Edg/124.0.0.0" etag="W-Aj89BO60tgDpSnKq0O" version="24.3.1" type="github">
  <diagram name="Page-1" id="1LClH84PgmRSB9pyHpdK">
    <mxGraphModel dx="2266" dy="1153" grid="1" gridSize="10" guides="1" tooltips="1" connect="1" arrows="1" fold="1" page="1" pageScale="1" pageWidth="850" pageHeight="1100" math="0" shadow="0">
      <root>
        <mxCell id="0" />
        <mxCell id="1" parent="0" />
        <mxCell id="hvaFQm5j50M5VCfyJywK-1" value="Customer" style="shape=umlActor;verticalLabelPosition=bottom;verticalAlign=top;html=1;outlineConnect=0;" vertex="1" parent="1">
          <mxGeometry x="110" y="160" width="30" height="60" as="geometry" />
        </mxCell>
        <mxCell id="hvaFQm5j50M5VCfyJywK-2" value="Technician" style="shape=umlActor;verticalLabelPosition=bottom;verticalAlign=top;html=1;outlineConnect=0;" vertex="1" parent="1">
          <mxGeometry x="110" y="570" width="30" height="60" as="geometry" />
        </mxCell>
        <mxCell id="hvaFQm5j50M5VCfyJywK-6" value="&amp;lt;&amp;lt;actor&amp;gt;&amp;gt;&lt;br&gt;&lt;br&gt;&lt;b&gt;Banking Systems&lt;/b&gt;" style="html=1;align=center;verticalAlign=middle;dashed=0;whiteSpace=wrap;" vertex="1" parent="1">
          <mxGeometry x="740" y="300" width="90" height="70" as="geometry" />
        </mxCell>
        <mxCell id="hvaFQm5j50M5VCfyJywK-7" value="Login" style="ellipse;whiteSpace=wrap;html=1;" vertex="1" parent="1">
          <mxGeometry x="250" y="210" width="140" height="70" as="geometry" />
        </mxCell>
        <mxCell id="hvaFQm5j50M5VCfyJywK-9" value="Invalid PIN" style="ellipse;whiteSpace=wrap;html=1;" vertex="1" parent="1">
          <mxGeometry x="255" y="50" width="140" height="70" as="geometry" />
        </mxCell>
        <mxCell id="hvaFQm5j50M5VCfyJywK-10" value="&amp;lt;&amp;lt;extend&amp;gt;&amp;gt;" style="html=1;verticalAlign=bottom;labelBackgroundColor=none;endArrow=open;endFill=0;dashed=1;rounded=0;entryX=0.5;entryY=1;entryDx=0;entryDy=0;exitX=0.407;exitY=-0.057;exitDx=0;exitDy=0;exitPerimeter=0;" edge="1" parent="1" source="hvaFQm5j50M5VCfyJywK-7" target="hvaFQm5j50M5VCfyJywK-9">
          <mxGeometry width="160" relative="1" as="geometry">
            <mxPoint x="320" y="170" as="sourcePoint" />
            <mxPoint x="480" y="170" as="targetPoint" />
          </mxGeometry>
        </mxCell>
        <mxCell id="hvaFQm5j50M5VCfyJywK-11" value="Transfer funds" style="ellipse;whiteSpace=wrap;html=1;" vertex="1" parent="1">
          <mxGeometry x="450" y="220" width="140" height="70" as="geometry" />
        </mxCell>
        <mxCell id="hvaFQm5j50M5VCfyJywK-14" value="Check Balance" style="ellipse;whiteSpace=wrap;html=1;" vertex="1" parent="1">
          <mxGeometry x="300" y="370" width="140" height="70" as="geometry" />
        </mxCell>
        <mxCell id="hvaFQm5j50M5VCfyJywK-15" value="Withdraw funds" style="ellipse;whiteSpace=wrap;html=1;" vertex="1" parent="1">
          <mxGeometry x="450" y="310" width="140" height="70" as="geometry" />
        </mxCell>
        <mxCell id="hvaFQm5j50M5VCfyJywK-17" value="Change PIN" style="ellipse;whiteSpace=wrap;html=1;" vertex="1" parent="1">
          <mxGeometry x="490" y="130" width="140" height="70" as="geometry" />
        </mxCell>
        <mxCell id="hvaFQm5j50M5VCfyJywK-18" value="&amp;nbsp;Maintainance" style="ellipse;whiteSpace=wrap;html=1;" vertex="1" parent="1">
          <mxGeometry x="265" y="530" width="140" height="70" as="geometry" />
        </mxCell>
        <mxCell id="hvaFQm5j50M5VCfyJywK-19" value="Repair" style="ellipse;whiteSpace=wrap;html=1;" vertex="1" parent="1">
          <mxGeometry x="265" y="620" width="140" height="70" as="geometry" />
        </mxCell>
        <mxCell id="hvaFQm5j50M5VCfyJywK-21" value="" style="endArrow=none;html=1;rounded=0;entryX=0;entryY=0.5;entryDx=0;entryDy=0;" edge="1" parent="1" target="hvaFQm5j50M5VCfyJywK-18">
          <mxGeometry width="50" height="50" relative="1" as="geometry">
            <mxPoint x="160" y="610" as="sourcePoint" />
            <mxPoint x="210" y="560" as="targetPoint" />
          </mxGeometry>
        </mxCell>
        <mxCell id="hvaFQm5j50M5VCfyJywK-22" value="" style="endArrow=none;html=1;rounded=0;entryX=0;entryY=0.5;entryDx=0;entryDy=0;" edge="1" parent="1" target="hvaFQm5j50M5VCfyJywK-19">
          <mxGeometry width="50" height="50" relative="1" as="geometry">
            <mxPoint x="160" y="610" as="sourcePoint" />
            <mxPoint x="230" y="600" as="targetPoint" />
          </mxGeometry>
        </mxCell>
        <mxCell id="hvaFQm5j50M5VCfyJywK-23" value="&amp;lt;&amp;lt;include&amp;gt;&amp;gt;" style="html=1;verticalAlign=bottom;labelBackgroundColor=none;endArrow=open;endFill=0;dashed=1;rounded=0;" edge="1" parent="1" source="hvaFQm5j50M5VCfyJywK-24">
          <mxGeometry width="160" relative="1" as="geometry">
            <mxPoint x="480" y="520" as="sourcePoint" />
            <mxPoint x="405" y="560" as="targetPoint" />
          </mxGeometry>
        </mxCell>
        <mxCell id="hvaFQm5j50M5VCfyJywK-24" value="Diagnostics" style="ellipse;whiteSpace=wrap;html=1;" vertex="1" parent="1">
          <mxGeometry x="490" y="460" width="140" height="70" as="geometry" />
        </mxCell>
        <mxCell id="hvaFQm5j50M5VCfyJywK-25" value="&amp;lt;&amp;lt;include&amp;gt;&amp;gt;" style="html=1;verticalAlign=bottom;labelBackgroundColor=none;endArrow=open;endFill=0;dashed=1;rounded=0;" edge="1" parent="1" source="hvaFQm5j50M5VCfyJywK-26">
          <mxGeometry width="160" relative="1" as="geometry">
            <mxPoint x="480" y="600" as="sourcePoint" />
            <mxPoint x="405" y="564.5" as="targetPoint" />
          </mxGeometry>
        </mxCell>
        <mxCell id="hvaFQm5j50M5VCfyJywK-26" value="Updates" style="ellipse;whiteSpace=wrap;html=1;" vertex="1" parent="1">
          <mxGeometry x="490" y="550" width="140" height="70" as="geometry" />
        </mxCell>
        <mxCell id="hvaFQm5j50M5VCfyJywK-27" value="" style="endArrow=none;html=1;rounded=0;entryX=0;entryY=0.5;entryDx=0;entryDy=0;" edge="1" parent="1" target="hvaFQm5j50M5VCfyJywK-7">
          <mxGeometry width="50" height="50" relative="1" as="geometry">
            <mxPoint x="140" y="190" as="sourcePoint" />
            <mxPoint x="190" y="150" as="targetPoint" />
          </mxGeometry>
        </mxCell>
        <mxCell id="hvaFQm5j50M5VCfyJywK-28" value="&amp;lt;&amp;lt;include&amp;gt;&amp;gt;" style="html=1;verticalAlign=bottom;labelBackgroundColor=none;endArrow=open;endFill=0;dashed=1;rounded=0;entryX=0;entryY=1;entryDx=0;entryDy=0;exitX=0;exitY=1;exitDx=0;exitDy=0;" edge="1" parent="1" source="hvaFQm5j50M5VCfyJywK-17">
          <mxGeometry width="160" relative="1" as="geometry">
            <mxPoint x="520" y="210" as="sourcePoint" />
            <mxPoint x="360" y="210" as="targetPoint" />
          </mxGeometry>
        </mxCell>
        <mxCell id="hvaFQm5j50M5VCfyJywK-29" value="&amp;lt;&amp;lt;include&amp;gt;&amp;gt;" style="html=1;verticalAlign=bottom;labelBackgroundColor=none;endArrow=open;endFill=0;dashed=1;rounded=0;entryX=0;entryY=0.5;entryDx=0;entryDy=0;exitX=0;exitY=0.5;exitDx=0;exitDy=0;" edge="1" parent="1" source="hvaFQm5j50M5VCfyJywK-11">
          <mxGeometry width="160" relative="1" as="geometry">
            <mxPoint x="510" y="245" as="sourcePoint" />
            <mxPoint x="390" y="244.5" as="targetPoint" />
          </mxGeometry>
        </mxCell>
        <mxCell id="hvaFQm5j50M5VCfyJywK-31" value="&amp;lt;&amp;lt;include&amp;gt;&amp;gt;" style="html=1;verticalAlign=bottom;labelBackgroundColor=none;endArrow=open;endFill=0;dashed=1;rounded=0;entryX=1;entryY=1;entryDx=0;entryDy=0;exitX=0;exitY=0.5;exitDx=0;exitDy=0;" edge="1" parent="1" source="hvaFQm5j50M5VCfyJywK-15" target="hvaFQm5j50M5VCfyJywK-7">
          <mxGeometry width="160" relative="1" as="geometry">
            <mxPoint x="550" y="250" as="sourcePoint" />
            <mxPoint x="390" y="250" as="targetPoint" />
          </mxGeometry>
        </mxCell>
        <mxCell id="hvaFQm5j50M5VCfyJywK-32" value="" style="endArrow=none;html=1;rounded=0;entryX=0;entryY=0.5;entryDx=0;entryDy=0;" edge="1" parent="1" target="hvaFQm5j50M5VCfyJywK-6">
          <mxGeometry width="50" height="50" relative="1" as="geometry">
            <mxPoint x="630" y="580" as="sourcePoint" />
            <mxPoint x="680" y="530" as="targetPoint" />
          </mxGeometry>
        </mxCell>
        <mxCell id="hvaFQm5j50M5VCfyJywK-33" value="" style="endArrow=none;html=1;rounded=0;" edge="1" parent="1">
          <mxGeometry width="50" height="50" relative="1" as="geometry">
            <mxPoint x="440" y="405" as="sourcePoint" />
            <mxPoint x="740" y="340" as="targetPoint" />
          </mxGeometry>
        </mxCell>
        <mxCell id="hvaFQm5j50M5VCfyJywK-34" value="" style="endArrow=none;html=1;rounded=0;entryX=0;entryY=0.5;entryDx=0;entryDy=0;exitX=1;exitY=0.5;exitDx=0;exitDy=0;" edge="1" parent="1" source="hvaFQm5j50M5VCfyJywK-11" target="hvaFQm5j50M5VCfyJywK-6">
          <mxGeometry width="50" height="50" relative="1" as="geometry">
            <mxPoint x="640" y="210" as="sourcePoint" />
            <mxPoint x="690" y="160" as="targetPoint" />
          </mxGeometry>
        </mxCell>
        <mxCell id="hvaFQm5j50M5VCfyJywK-35" value="" style="endArrow=none;html=1;rounded=0;entryX=0;entryY=0.5;entryDx=0;entryDy=0;exitX=1;exitY=0.5;exitDx=0;exitDy=0;" edge="1" parent="1" source="hvaFQm5j50M5VCfyJywK-15" target="hvaFQm5j50M5VCfyJywK-6">
          <mxGeometry width="50" height="50" relative="1" as="geometry">
            <mxPoint x="640" y="300" as="sourcePoint" />
            <mxPoint x="730" y="380" as="targetPoint" />
          </mxGeometry>
        </mxCell>
        <mxCell id="hvaFQm5j50M5VCfyJywK-36" value="" style="endArrow=none;html=1;rounded=0;entryX=0;entryY=0.5;entryDx=0;entryDy=0;" edge="1" parent="1" target="hvaFQm5j50M5VCfyJywK-6">
          <mxGeometry width="50" height="50" relative="1" as="geometry">
            <mxPoint x="629" y="170" as="sourcePoint" />
            <mxPoint x="629" y="270" as="targetPoint" />
          </mxGeometry>
        </mxCell>
        <mxCell id="hvaFQm5j50M5VCfyJywK-38" value="" style="swimlane;startSize=0;" vertex="1" parent="1">
          <mxGeometry x="240" y="30" width="420" height="670" as="geometry" />
        </mxCell>
        <mxCell id="hvaFQm5j50M5VCfyJywK-8" style="edgeStyle=orthogonalEdgeStyle;rounded=0;orthogonalLoop=1;jettySize=auto;html=1;exitX=0.5;exitY=1;exitDx=0;exitDy=0;" edge="1" parent="hvaFQm5j50M5VCfyJywK-38">
          <mxGeometry relative="1" as="geometry">
            <mxPoint x="61.94" y="249.95" as="sourcePoint" />
            <mxPoint x="61.94" y="249.95" as="targetPoint" />
          </mxGeometry>
        </mxCell>
        <mxCell id="hvaFQm5j50M5VCfyJywK-30" value="&amp;lt;&amp;lt;include&amp;gt;&amp;gt;" style="html=1;verticalAlign=bottom;labelBackgroundColor=none;endArrow=open;endFill=0;dashed=1;rounded=0;" edge="1" parent="hvaFQm5j50M5VCfyJywK-38">
          <mxGeometry width="160" relative="1" as="geometry">
            <mxPoint x="120" y="340" as="sourcePoint" />
            <mxPoint x="100" y="250" as="targetPoint" />
          </mxGeometry>
        </mxCell>
        <mxCell id="hvaFQm5j50M5VCfyJywK-39" value="&amp;lt;&amp;lt;extend&amp;gt;&amp;gt;" style="html=1;verticalAlign=bottom;labelBackgroundColor=none;endArrow=open;endFill=0;dashed=1;rounded=0;entryX=1;entryY=0.5;entryDx=0;entryDy=0;exitX=0;exitY=0;exitDx=0;exitDy=0;" edge="1" parent="1" source="hvaFQm5j50M5VCfyJywK-17" target="hvaFQm5j50M5VCfyJywK-9">
          <mxGeometry width="160" relative="1" as="geometry">
            <mxPoint x="430" y="110" as="sourcePoint" />
            <mxPoint x="590" y="110" as="targetPoint" />
          </mxGeometry>
        </mxCell>
      </root>
    </mxGraphModel>
  </diagram>
</mxfile>
